<svg width="480" height="280" viewBox="0 0 480 280" fill="none" xmlns="http://www.w3.org/2000/svg">
<path fill-rule="evenodd" clip-rule="evenodd" d="M124.132 85.015C177.067 87.452 230 89.8873 282.935 92.3244C326.517 94.3308 369.726 93.7615 413.317 91.3244C419.209 90.9954 425.391 90.5592 430.393 86.9798C435.394 83.4013 438.59 75.5605 435.687 69.6854C431.633 66.6957 427.65 63.5775 423.743 60.341C420.499 57.6544 417.94 54.5112 414.343 52.3495C408.656 48.9328 402.969 45.5161 397.282 42.0984C392.113 38.9922 386.904 35.8675 381.318 33.923C378.478 32.9332 375.562 32.2576 372.643 31.6375C363.084 29.6089 352.781 27.2107 343.085 27.0942C333.289 26.9759 323.254 28.804 313.585 26.2837H246.676H232.554L205.881 28.0378L191.103 32.4656L165.06 46.8192L140.646 65.7641L124.132 85.015Z" fill="#E1E1E1"/>
<path fill-rule="evenodd" clip-rule="evenodd" d="M429.046 80.4375L382.969 84.844C379.573 60.5998 367.741 31.9019 367.741 31.9019C393.904 36.4969 427.594 64.5886 429.143 66.168C430.616 67.6892 432.622 72.0042 430.713 77.639C430.33 78.5725 429.807 79.5124 429.046 80.4375V80.4375ZM315.815 89.4722C315.815 89.4722 332.857 47.1102 333.907 45.1158C334.957 43.1214 339.724 30.0488 362.182 31.5044C362.182 31.5044 375.912 69.9645 376.809 85.3651C376.809 85.3651 329.675 89.6774 315.815 89.4722V89.4722ZM307.161 88.6514C255.871 79.8938 157.457 82.9371 129.611 84.0231C130.618 82.9833 179.246 32.9894 216.691 29.3629C293.658 25.0839 329.672 33.8747 329.672 33.8747C320.583 51.1811 307.161 88.6514 307.161 88.6514V88.6514ZM469.973 113.91C469.255 96.2485 462.254 90.5001 462.254 90.5001C453.459 85.9817 441.97 75.714 441.97 75.714C420.07 47.3756 387.579 34.0275 387.579 34.0275C365.321 23.5546 336.052 21.758 336.052 21.758C326.764 20.0446 259.363 19.6721 236.737 22.0427C210.201 24.8226 199.995 28.2782 199.995 28.2782C197.142 29.036 194.31 29.9056 191.483 30.9768L191.103 31.1117C191.103 31.1117 188.975 31.8335 184.84 33.8464C173.687 38.947 162.996 45.9597 153.595 53.1721C152.768 53.7691 151.931 54.3782 151.078 55.0038C151.078 55.0038 150.171 55.7635 148.672 57.0481C131.154 71.2455 119.217 84.9549 119.217 84.9549C119.217 84.9549 101.487 88.3467 77.8706 95.5582C46.2995 105.199 30.8053 117.969 30.8053 117.969L18.1546 141.222C11.8713 145.74 13.846 161.14 13.846 161.14L9 168.123L12.4103 206.729L9.17886 208.988C9.17886 208.988 10.6098 214.318 14.5646 218.228C21.7127 225.298 32.1487 229.835 32.1487 229.835L243.436 237.327L247.374 234.494L253.968 229.355L255.402 224.252C258.701 196.777 256.376 162.526 273.546 140.21C276.767 136.024 281.425 132.234 286.11 130.865C292.395 129.031 299.231 129.28 304.092 135.21C306.949 138.697 309.099 143.184 310.407 147.724C317.55 172.48 317.335 199.831 310.811 224.809C310.673 225.124 319.612 224.137 320.477 223.981C324.194 223.309 327.912 222.635 331.63 221.963C341.558 220.166 351.485 218.37 361.412 216.574C380.3 213.156 399.187 209.738 418.075 206.321C421.556 206.321 424.87 204.541 428.291 204.171C428.875 204.106 429.519 204.01 429.899 203.501C430.175 203.135 430.251 202.63 430.317 202.152C431.149 196.048 431.714 189.9 432.516 183.794C433.233 178.317 434.92 172.938 436.254 167.6C437.502 162.599 439.116 157.573 439.628 152.415C440.168 146.987 440.672 141.436 443.436 136.79C446.423 131.767 452.764 128.803 457.218 132.112C460.43 134.498 461.621 139.149 462.413 143.435C465.421 159.683 465.212 175.602 465.066 192.08L471.29 180.444L471.888 151.968L469.973 113.91Z" fill="#BFBFBF"/>
<path fill-rule="evenodd" clip-rule="evenodd" d="M334.937 260.175C360.857 252.717 405.381 240.255 405.381 240.255C430.782 232.946 450.911 227.571 450.911 227.571C452.844 227.014 454.928 221.7 452.959 221.7H268.946C268.946 221.7 26.4922 257.464 26.47 257.48L334.937 260.175Z" fill="#BFBFBF"/>
<path fill-rule="evenodd" clip-rule="evenodd" d="M235.823 236.883C235.823 236.883 243.325 259.667 254.647 259.667H285.187C295.025 258.971 300.778 252.021 303.891 247.072C308.322 240.033 310.665 230.575 312.587 222.249C315.359 210.25 315.622 196.496 315.897 184.089C316.173 171.58 314.204 161.715 310.287 150.101C308.356 144.374 306.248 138.366 302.038 134.561C298.059 130.965 292.601 129.884 287.625 131.006C282.651 132.127 278.146 135.285 274.493 139.308C266.05 148.604 262.108 162.072 260.311 175.319C258.112 191.534 256.804 208 254.634 224.243L253.964 229.351L245.766 231.558L243.447 237.321L235.823 236.883Z" fill="#C8C8C8"/>
<path fill-rule="evenodd" clip-rule="evenodd" d="M235.784 237.027C235.784 237.027 243.325 259.668 254.647 259.668L285.153 259.904C294.99 259.209 300.778 252.021 303.892 247.072C308.322 240.033 310.665 230.575 312.588 222.249C315.359 210.25 315.622 196.497 315.896 184.089C316.173 171.581 314.204 161.716 310.287 150.101C308.356 144.374 306.247 138.366 302.037 134.561C298.059 130.964 292.601 129.883 287.626 131.005C282.65 132.127 278.146 135.286 274.493 139.309C266.05 148.603 262.108 162.072 260.311 175.318C258.112 191.534 257.567 208.023 255.396 224.268L253.946 229.331L245.75 231.558L243.446 237.309L235.784 237.027Z" fill="#C8C8C8"/>
<path fill-rule="evenodd" clip-rule="evenodd" d="M465.781 190.52C463.661 226.104 449.951 227.837 449.951 227.837H423.743C414.589 227.837 409.685 208.74 409.685 208.74V207.779L426.316 204.769C427.982 198.478 430.382 191.98 431.349 185.52C432.786 175.922 433.145 166.295 435.127 156.737C436.635 149.462 438.687 142.015 443.164 136.567C445.172 134.124 447.796 132.09 450.723 131.938C454.17 131.759 457.352 134.23 459.538 137.283C464.989 144.905 465.453 155.55 465.669 165.394C465.854 173.773 466.28 182.161 465.781 190.52" fill="#C8C8C8"/>
<path fill-rule="evenodd" clip-rule="evenodd" d="M52.687 138.141C51.602 138.141 50.5741 138.607 49.7831 139.459L38.1325 152.003C37.002 153.22 36.5084 154.985 36.8144 156.725L43.6589 195.664C44.1168 198.272 46.0636 200.161 48.3928 200.258L143.018 204.19C146.337 204.328 149.283 201.878 150.186 198.231L159.786 159.481C160.108 158.187 159.877 156.771 159.17 155.692L150.429 142.36C149.72 141.279 148.633 140.64 147.45 140.61L52.7856 138.143C52.753 138.142 52.7196 138.141 52.687 138.141M143.285 206.225C143.175 206.225 143.066 206.223 142.956 206.218L48.3313 202.286C45.1929 202.156 42.5688 199.6 41.9487 196.071L35.1043 157.132C34.675 154.691 35.3634 152.217 36.9454 150.514L48.596 137.969C49.7463 136.732 51.2384 136.072 52.8243 136.114L147.488 138.581C149.206 138.625 150.783 139.554 151.818 141.129L160.559 154.463C161.599 156.049 161.937 158.136 161.463 160.044L151.864 198.793C150.768 203.214 147.268 206.225 143.285 206.225" fill="white"/>
<path fill-rule="evenodd" clip-rule="evenodd" d="M167.227 139.125C167.227 139.125 189.127 128.652 209.412 126.393C209.412 126.393 249.8 122.286 251.057 122.902L246.966 143.297L178.655 147.794C178.655 147.794 176.944 148.22 167.227 139.125" fill="white"/>
<path fill-rule="evenodd" clip-rule="evenodd" d="M33.8399 141.684C34.5387 141.874 43.3673 135.634 43.3673 135.634L38.5205 125.161L30.8016 117.975C30.8016 117.975 25.4167 119 22.7242 125.778L20.7361 135.318C20.7361 135.318 22.5311 138.603 33.8399 141.684" fill="white"/>
<path fill-rule="evenodd" clip-rule="evenodd" d="M108.719 161.446C107.362 161.418 106.119 160.859 105.133 159.946C106.169 158.458 106.803 156.575 106.834 154.513C106.866 152.452 106.292 150.543 105.303 149.012C106.317 148.141 107.575 147.634 108.933 147.663C112.207 147.731 114.813 150.873 114.754 154.679C114.696 158.485 111.993 161.515 108.719 161.446M95.4834 159.743C96.5184 158.256 97.152 156.372 97.1846 154.31C97.2164 152.248 96.6416 150.339 95.6527 148.809C96.6663 147.938 97.9255 147.431 99.2832 147.46C100.641 147.488 101.883 148.047 102.869 148.961C101.833 150.449 101.201 152.332 101.168 154.393C101.136 156.455 101.711 158.364 102.699 159.894C101.686 160.767 100.427 161.272 99.0694 161.243C97.7116 161.215 96.4691 160.657 95.4834 159.743M85.833 159.54C86.868 158.052 87.5023 156.168 87.5341 154.108C87.5659 152.046 86.9912 150.137 86.0031 148.606C87.0166 147.734 88.275 147.229 89.6328 147.257C90.9913 147.286 92.233 147.844 93.2188 148.757C92.1837 150.246 91.5502 152.13 91.5184 154.191C91.4858 156.253 92.0613 158.161 93.0494 159.692C92.0359 160.564 90.7775 161.069 89.4189 161.041C88.0612 161.012 86.8187 160.455 85.833 159.54M73.9478 153.822C74.0066 150.016 76.7094 146.986 79.983 147.055C81.3407 147.084 82.5832 147.641 83.5689 148.556C82.5339 150.043 81.9004 151.927 81.8678 153.99C81.836 156.05 82.4107 157.96 83.3988 159.489C82.3861 160.361 81.1269 160.867 79.7691 160.839C76.4955 160.77 73.8889 157.629 73.9478 153.822M84.6387 158.049C83.963 156.906 83.5751 155.517 83.5981 154.026C83.6212 152.532 84.0521 151.161 84.7627 150.047C85.4392 151.189 85.8272 152.578 85.8041 154.072C85.7811 155.564 85.3502 156.936 84.6387 158.049M94.2886 158.252C93.6129 157.109 93.225 155.72 93.248 154.227C93.2711 152.734 93.702 151.363 94.4134 150.249C95.0891 151.392 95.4771 152.781 95.454 154.273C95.431 155.766 95.0001 157.138 94.2886 158.252M103.939 158.454C103.263 157.311 102.875 155.922 102.898 154.429C102.922 152.938 103.353 151.566 104.063 150.452C104.739 151.595 105.127 152.984 105.104 154.477C105.081 155.968 104.65 157.341 103.939 158.454M108.964 145.65C107.136 145.612 105.445 146.324 104.109 147.54C102.81 146.269 101.143 145.487 99.3142 145.448C97.4851 145.41 95.795 146.122 94.4587 147.338C93.1606 146.066 91.4936 145.284 89.6644 145.246C87.8353 145.208 86.1444 145.919 84.8081 147.135C83.5108 145.865 81.843 145.082 80.0138 145.044C75.7847 144.954 72.2941 148.869 72.2178 153.786C72.1415 158.703 75.5081 162.76 79.738 162.848C81.5671 162.887 83.2572 162.177 84.5935 160.96C85.8916 162.232 87.5586 163.012 89.3878 163.051C91.2169 163.089 92.9078 162.379 94.2441 161.162C95.5414 162.434 97.2092 163.215 99.0384 163.253C100.868 163.292 102.558 162.581 103.894 161.365C105.192 162.637 106.859 163.418 108.688 163.456C112.917 163.544 116.408 159.631 116.484 154.715C116.56 149.797 113.194 145.74 108.964 145.65" fill="#E1E1E1"/>
<path fill-rule="evenodd" clip-rule="evenodd" d="M311.802 225.59L312.506 221.7L410.997 203.538H429.188L429.068 205.728L311.802 225.59Z" fill="#DBDBDB"/>
<path fill-rule="evenodd" clip-rule="evenodd" d="M463.414 198.472C468.918 188.889 466.645 160.139 466.645 160.139C464.73 125.23 451.926 127.01 451.926 127.01C441.966 129.65 436.012 146.301 432.667 160.721H435.983C439.827 145.334 442.232 142.616 442.232 142.616C449.413 130.159 455.276 136.045 455.276 136.045C469.995 150.556 463.533 189.711 463.533 189.711L463.414 198.472Z" fill="#CECECE"/>
<path fill-rule="evenodd" clip-rule="evenodd" d="M461.544 94.5621C449.889 91.1814 428.949 94.5621 428.949 94.5621C428.949 94.5621 322.495 106.381 314.41 106.883C282.376 108.874 256.489 118.679 256.489 118.679C256.489 118.679 332.506 112.288 367.558 108.32C402.61 104.351 461.544 94.5621 461.544 94.5621" fill="#CECECE"/>
<path fill-rule="evenodd" clip-rule="evenodd" d="M283.677 96.0004C283.677 96.0004 177.279 88.7372 115.546 93.2241L110.556 95.1362L251.723 98.8238L283.677 96.0004Z" fill="#CECECE"/>
<path fill-rule="evenodd" clip-rule="evenodd" d="M42.1931 233.284C42.1931 233.284 46.8896 253.833 71.5925 254.281L94.0329 254.504C94.0329 254.504 78.7589 255.399 66.3124 233.691L42.1931 233.284Z" fill="#C8C8C8"/>
<path fill-rule="evenodd" clip-rule="evenodd" d="M94.0329 254.504C97.1062 254.462 101.268 251.488 103.754 249.708C109.293 245.743 114.64 238.278 114.515 230.382C114.53 231.297 52.091 228.504 46.4716 228.248C44.7632 228.17 42.8085 228.414 41.8991 230.097C41.8919 230.11 42.1892 233.246 42.19 233.254C42.376 234.567 43.7139 235.09 44.7346 235.596C47.8444 237.139 51.3485 236.981 54.7231 237.235C61.5794 237.753 69.4986 239.843 74.7691 245.057C80.1715 250.403 86.7354 254.604 94.0329 254.504" fill="#BFBFBF"/>
<path fill-rule="evenodd" clip-rule="evenodd" d="M309.085 199.483C309.085 171.523 297.27 148.857 282.696 148.857C268.122 148.857 256.307 171.523 256.307 199.483C256.307 227.443 268.122 250.109 282.696 250.109C297.27 250.109 309.085 227.443 309.085 199.483" fill="#E6E6E6"/>
<path fill-rule="evenodd" clip-rule="evenodd" d="M299.526 236.218L288.774 205.584L307.068 192.202C307.431 195.353 307.626 198.618 307.626 201.968C307.626 215.512 304.501 227.716 299.526 236.218M270.363 242.328L282.69 213.92L294.981 242.381C291.352 246.229 287.161 248.44 282.696 248.44C278.211 248.44 274.003 246.21 270.363 242.328M258.28 192.559L276.517 205.591L265.577 235.703C260.773 227.227 257.766 215.244 257.766 201.968C257.766 198.745 257.944 195.598 258.28 192.559M280.005 155.771L278.952 192.089L260.232 181.824C263.894 167.693 271.283 157.526 280.005 155.771M305.362 182.651L286.437 192.29L285.344 155.761C294.253 157.524 301.771 168.07 305.362 182.651M285.243 152.389L285.236 152.147H280.11L280.103 152.396C266.582 154.834 255.975 176.133 255.975 201.968C255.975 229.434 267.962 251.779 282.696 251.779C297.431 251.779 309.417 229.434 309.417 201.968C309.417 176.104 298.787 154.789 285.243 152.389" fill="white"/>
<path fill-rule="evenodd" clip-rule="evenodd" d="M421.065 125.984C420.374 126.08 321.6 139.742 321.6 139.742C315.639 140.604 313.69 145.393 313.055 148.187C308.784 135.298 303.114 130.911 303.114 130.911C291.087 118.59 277.445 132.349 277.445 132.349C255.545 150.01 252.672 219.418 252.672 219.418H255.254L258.661 194.174C265.124 137.086 288.932 134.402 288.932 134.402C300.96 131.938 308.055 147.093 308.055 147.093C321.159 176.869 311.802 225.59 311.802 225.59L313.24 225.347L315.5 210.587C315.827 208.282 316.103 206.055 316.352 203.871C349.012 179.781 418.893 169.109 418.305 170.193C419.043 168.849 419.277 167.209 419.512 165.624C420.459 159.225 421.743 152.727 424.733 147.311C425.957 145.092 427.466 143.057 428.282 140.581C430.248 134.621 427.255 125.127 421.065 125.984" fill="#CECECE"/>
<path fill-rule="evenodd" clip-rule="evenodd" d="M464.64 181.017C464.64 158.244 458.612 139.783 451.177 139.783C443.741 139.783 437.713 158.244 437.713 181.017C437.713 203.791 443.741 222.251 451.177 222.251C458.612 222.251 464.64 203.791 464.64 181.017" fill="#E6E6E6"/>
<path fill-rule="evenodd" clip-rule="evenodd" d="M459.763 210.936L454.278 185.986L463.611 175.086C463.796 177.652 463.896 180.312 463.896 183.04C463.896 194.072 462.301 204.012 459.763 210.936M451.176 220.891C448.888 220.891 446.741 219.075 444.884 215.915L451.173 192.776L457.444 215.958C455.593 219.092 453.455 220.891 451.176 220.891M438.719 175.376L448.023 185.992L442.442 210.518C439.991 203.614 438.457 193.854 438.457 183.041C438.457 180.416 438.548 177.852 438.719 175.376M449.81 145.413L449.268 174.996L439.715 166.634C441.584 155.118 445.357 146.834 449.81 145.413M462.74 167.308L453.084 175.158L452.52 145.404C457.069 146.832 460.908 155.426 462.74 167.308M451.176 142.471C443.659 142.471 437.544 160.671 437.544 183.041C437.544 205.411 443.659 223.612 451.176 223.612C458.694 223.612 464.81 205.411 464.81 183.041C464.81 160.671 458.694 142.471 451.176 142.471" fill="white"/>
<path fill-rule="evenodd" clip-rule="evenodd" d="M20.6462 208.552C20.3791 207.847 20.3314 207.284 20.3059 206.526C20.0309 198.27 19.7558 190.014 19.4808 181.758C24.0597 182.845 28.6393 183.931 33.219 185.018L32.9694 183.547C30.3914 179.847 21.872 178.579 16.9704 177.661C16.154 177.509 15.3813 178.093 15.3892 178.99L15.5927 201.728C15.6404 207.041 19.3552 211.457 24.2496 212.017C25.6074 212.172 28.0034 212.4 30.296 212.608L30.106 211.976C25.9476 211.112 21.0778 209.691 20.6462 208.552" fill="#D5D5D5"/>
<path fill-rule="evenodd" clip-rule="evenodd" d="M233.262 178.228L189.637 182.088C188.349 182.202 184.623 182.582 184.368 184.196C184.33 184.121 199.853 183.394 207.417 183.067C215.26 182.729 223.101 182.346 230.941 181.918C231.144 189.774 231.347 197.628 231.551 205.482C231.567 206.099 231.578 206.738 231.346 207.301C230.97 208.215 230.05 208.706 229.177 209.043C226.514 210.068 223.661 210.337 220.845 210.617C212.051 211.49 203.271 212.541 194.512 213.769C194.38 213.788 194.241 213.828 194.102 213.875L193.856 215.292C198.656 214.996 224.361 213.514 227.896 213.232C232.366 212.873 235.823 208.858 235.823 204.024V180.772C235.823 179.28 234.641 178.105 233.262 178.228" fill="#D5D5D5"/>
</svg>
