<svg width="2600" height="1080" viewBox="0 0 2600 1080" fill="none" xmlns="http://www.w3.org/2000/svg">
<g clip-path="url(#clip0_107_976)">
<g opacity="0.04">
<path fill-rule="evenodd" clip-rule="evenodd" d="M243.53 752.599V510.744H182.747V756.308L243.53 752.599Z" fill="#E3E3E3"/>
<path fill-rule="evenodd" clip-rule="evenodd" d="M423.793 572.939V568.137H472.509V572.939H481.447V778.573H335.747V572.939H423.793Z" fill="#B0B2B3"/>
<path fill-rule="evenodd" clip-rule="evenodd" d="M891.286 657.197L891.882 540.813H881.752V517.118H874.601V505.27H871.621L863.278 469.031L854.936 505.27H851.955V517.118H844.805V540.813H834.675L835.27 817.661H891.733L891.286 657.197Z" fill="#E3E3E3"/>
<path fill-rule="evenodd" clip-rule="evenodd" d="M1226.28 782.445H1185.16V550.206H1169.97V537H1114.55V549.751H1109.18V580.717H1092.2V737.818H1082.37V719.149H1056.89V737.363H1014.88V781.079V814.775H1228.07L1226.28 782.445Z" fill="#878787"/>
<path fill-rule="evenodd" clip-rule="evenodd" d="M870.038 760.673H806.379V715.849H778.508V707.7H721.501V817.721H871.621L870.038 760.673Z" fill="#595959"/>
<path fill-rule="evenodd" clip-rule="evenodd" d="M882.597 817.523H986.286V629.713H882.597V817.523Z" fill="#878787"/>
<path fill-rule="evenodd" clip-rule="evenodd" d="M1169.28 804.723C1169.28 804.723 1158.11 774.638 1129.06 774.153C1100.01 773.667 964.136 773.667 964.136 773.667C964.136 773.667 917.656 779.976 917.656 809.09V819.279H1171.51L1169.28 804.723Z" fill="#252625"/>
<path fill-rule="evenodd" clip-rule="evenodd" d="M585.285 410.299V388.574H576.68V374.301H549.494V388.574H540.89V410.299H520.33V817.755H604.355V410.299H585.285Z" fill="#868789"/>
<path fill-rule="evenodd" clip-rule="evenodd" d="M728.763 818.929V746.48H691.221V665.851H682.878V660.008H645.336V665.267H551.181V819.513C551.181 819.513 728.763 818.344 728.763 818.929" fill="#878787"/>
<path fill-rule="evenodd" clip-rule="evenodd" d="M305.504 704.006V677.811H79.6527C79.6527 677.811 79.5516 665.019 79.6527 665.004C79.7916 664.982 -85.4146 665.004 -85.4146 665.004V749.993H92.1675V784.338H308.483L305.504 704.006Z" fill="#B0B2B3"/>
<path fill-rule="evenodd" clip-rule="evenodd" d="M261.555 765.476H287.924V693.001H392.06V772.025H421.144L421.111 759.8V755.433H488.598V761.109H516.308V772.898H527.035V804.769H258.873L261.555 765.476Z" fill="#595959"/>
<path fill-rule="evenodd" clip-rule="evenodd" d="M267.811 801.998V768.971H227.14V598.382H166.357V640.689H156.524V664.161H138.647V768.426H123.451V749.594H-3.03119V739.767H-85.6952L-85.4165 809.03C0.810722 806.663 180.987 803.909 267.811 803.909C267.811 803.909 268.258 801.725 267.811 801.998" fill="#595959"/>
<path fill-rule="evenodd" clip-rule="evenodd" d="M1405.09 748.592L1260.29 748.479V743.562H1197V749.372H1191.21V796.753H1122.58V808.374H1090.05V816.42H809.29V808.822H721.496V819.549H1405.19C1405.19 819.549 1405.09 748.145 1405.09 748.592" fill="#3D3D3D"/>
<path fill-rule="evenodd" clip-rule="evenodd" d="M481.447 803.503V795.71H415.802V782.055H281.494V795.71H65.7985V768.507H-85.713V820.024H65.7985V819.73H481.447V819.549H667.372V803.503H481.447Z" fill="#3D3D3D"/>
<path fill-rule="evenodd" clip-rule="evenodd" d="M1523.8 717.696V475.841H1461.2V721.404L1523.8 717.696Z" fill="#E3E3E3"/>
<path fill-rule="evenodd" clip-rule="evenodd" d="M1709.45 538.036V533.234H1759.63V538.036H1768.83V743.67H1618.78V538.036H1709.45Z" fill="#B0B2B3"/>
<path fill-rule="evenodd" clip-rule="evenodd" d="M2190.93 622.294L2191.54 505.91H2181.11V482.215H2173.74V470.367H2170.67L2162.08 434.128L2153.49 470.367H2150.42V482.215H2143.06V505.91H2132.62L2133.24 782.759H2191.39L2190.93 622.294Z" fill="#E3E3E3"/>
<path fill-rule="evenodd" clip-rule="evenodd" d="M2535.94 747.541H2493.59V515.303H2477.94V502.097H2420.86V514.848H2415.34V545.813H2397.85V702.915H2387.72V684.245H2361.48V702.459H2318.22V746.176V779.872H2537.78L2535.94 747.541Z" fill="#878787"/>
<path fill-rule="evenodd" clip-rule="evenodd" d="M2169.04 725.77H2103.48V680.946H2074.78V672.796H2016.06V782.818H2170.67L2169.04 725.77Z" fill="#595959"/>
<mask id="mask0_107_976" style="mask-type:alpha" maskUnits="userSpaceOnUse" x="1021" y="279" width="1580" height="832">
<path fill-rule="evenodd" clip-rule="evenodd" d="M1021.23 1110.19H2600.68V279.403H1021.23V1110.19Z" fill="white"/>
</mask>
<g mask="url(#mask0_107_976)">
<path fill-rule="evenodd" clip-rule="evenodd" d="M2181.98 782.621H2288.77V594.811H2181.98V782.621Z" fill="#878787"/>
<path fill-rule="evenodd" clip-rule="evenodd" d="M2477.23 769.82C2477.23 769.82 2465.73 739.735 2435.81 739.25C2405.89 738.765 2265.96 738.765 2265.96 738.765C2265.96 738.765 2218.08 745.073 2218.08 774.187V784.377H2479.53L2477.23 769.82Z" fill="#252625"/>
<path fill-rule="evenodd" clip-rule="evenodd" d="M1875.78 375.396V353.672H1866.91V339.398H1838.91V353.672H1830.05V375.396H1808.88V782.853H1895.42V375.396H1875.78Z" fill="#868789"/>
<path fill-rule="evenodd" clip-rule="evenodd" d="M2023.54 784.025V711.576H1984.88V630.948H1976.29V625.105H1937.62V630.364H1840.65V784.61C1840.65 784.61 2023.54 783.441 2023.54 784.025" fill="#878787"/>
<path fill-rule="evenodd" clip-rule="evenodd" d="M1587.63 669.102V642.907H1355.02C1355.02 642.907 1354.92 630.115 1355.02 630.1C1355.17 630.079 1185.02 630.1 1185.02 630.1V715.09H1367.91V749.434H1590.7L1587.63 669.102Z" fill="#B0B2B3"/>
<path fill-rule="evenodd" clip-rule="evenodd" d="M1542.37 730.572H1569.52V658.098H1676.77V737.121H1706.73L1706.69 724.896V720.53H1776.2V726.206H1804.74V737.995H1815.78V769.865H1539.6L1542.37 730.572Z" fill="#595959"/>
<path fill-rule="evenodd" clip-rule="evenodd" d="M1548.81 767.094V734.068H1506.92V563.479H1444.32V605.786H1434.19V629.257H1415.78V733.523H1400.13V714.69H1269.87V704.864H1184.73L1185.02 774.126C1273.82 771.759 1459.39 769.005 1548.81 769.005C1548.81 769.005 1549.27 766.821 1548.81 767.094" fill="#595959"/>
<path fill-rule="evenodd" clip-rule="evenodd" d="M1768.83 768.6V760.807H1701.22V747.152H1562.9V760.807H1340.76V733.604H1184.71V785.121H1340.76V784.827H1768.83V784.645H1960.32V768.6H1768.83Z" fill="#3D3D3D"/>
<path fill-rule="evenodd" clip-rule="evenodd" d="M2601.03 707.637L2451.9 707.524V702.606H2386.72V708.416H2380.75V755.797H2310.07V767.418H2276.57V775.464H1987.41V767.866H1896.99V778.594H2601.13C2601.13 778.594 2601.03 707.19 2601.03 707.637" fill="#3D3D3D"/>
</g>
<path fill-rule="evenodd" clip-rule="evenodd" d="M-86 756.592L-86 1146H2600.68V756.592H-86Z" fill="#9C9C9C"/>
<path fill-rule="evenodd" clip-rule="evenodd" d="M-86 921.83V1146H946.832L2600.68 819.318V751.769L-86 921.83Z" fill="#D0D0D0"/>
</g>
</g>
<defs>
<clipPath id="clip0_107_976">
<rect width="2600" height="1080" fill="white"/>
</clipPath>
</defs>
</svg>
